<svg width="52" height="70" viewBox="0 0 52 70" fill="none" xmlns="http://www.w3.org/2000/svg">
<path d="M36.1899 8.43918C36.4862 6.97027 34.5837 5.62199 33.1958 4.79883C29.8119 2.8048 23.426 1.89648 20.0109 1.89648C18.428 1.89648 17.7263 2.8048 17.3365 3.62796C16.6269 5.06848 10.857 17.5081 4.25284 20.8788C1.05601 22.518 1.96048 23.9586 2.76358 25.4204C3.86298 26.8609 13.1416 30.7851 13.1416 30.7851C11.8551 39.6766 10.5373 48.483 10.5373 55.4869C10.5373 56.6649 11.0519 58.3041 11.9486 58.9286C14.8258 61.1213 21.3286 66.2874 26.3032 66.3725C27.808 66.3725 28.5176 65.7339 28.6111 64.4707C30.615 43.2247 34.2952 18.7925 36.1899 8.43918ZM49.9597 58.3964C50.256 57.0197 48.8603 55.0257 47.6673 54.2877C44.4783 52.3859 39.9716 52.2937 36.8761 52.2937C35.3946 52.2937 34.88 53.1168 34.6851 53.8477C34.1003 56.1114 33.4921 59.3047 33.4921 62.3844C33.4921 63.4702 33.7806 64.3785 34.3888 65.1094C36.5876 67.6427 39.8702 68.3736 45.9676 68.3736C47.3555 68.3736 47.6674 67.7492 48.0572 66.6422C48.9617 63.825 49.1566 62.9167 49.9597 58.3964Z" stroke="#333333" stroke-width="2.91667"/>
</svg>
