<svg width="80" height="69" viewBox="0 0 80 69" fill="none" xmlns="http://www.w3.org/2000/svg">
<path d="M19.8362 65.3027C25.2181 65.4786 24.7274 65.0425 30.9114 65.2183C40.8885 65.57 48.7548 67.6379 50.3592 67.3706C53.1319 66.8431 53.7394 64.4939 52.5478 61.7859C50.0399 56.1168 48.3654 51.2636 46.465 50.2718C45.1721 49.6317 42.5708 48.8229 37.2902 48.7314C35.3898 48.7314 32.9053 48.647 30.0158 48.5556C29.307 48.2954 29.307 47.5709 29.8211 47.0223C36.9008 38.2935 47.166 30.9996 50.5539 22.1864C52.3531 18.2265 51.839 13.9852 51.1381 13.1763C46.7532 7.78854 35.5845 1.57079 29.307 1.92247C25.6309 2.11941 15.8486 3.89892 9.08039 7.06407C6.37779 8.31606 5.7002 8.95612 6.60366 11.657L10.8873 21.2861C11.8842 22.3623 13.1693 23.8112 15.7473 22.7351C19.1587 21.2861 25.4362 19.8302 27.5312 19.9427C29.4005 20.0341 29.7198 20.6461 29.2058 21.6378C24.4392 29.6562 8.08347 42.7106 2.80289 52.7125V52.7969C2.29664 53.5003 2.00068 54.2318 2.00068 55.1321C1.90722 57.5727 11.4714 63.3263 12.3671 63.9663C14.361 65.4786 15.5526 66.1186 19.8362 65.3027ZM77.9615 57.5727C78.2497 56.2082 76.8634 54.2318 75.6717 53.5003C72.4862 51.6152 67.9845 51.5238 64.8925 51.5238C63.4049 51.5238 62.8986 52.3397 62.7039 53.0642C62.1198 55.3079 61.5123 58.4731 61.5123 61.5257C61.5123 62.6018 61.8005 63.5021 62.408 64.2266C64.5965 66.7306 67.8833 67.4621 73.966 67.4621C75.3602 67.4621 75.6717 66.8431 76.0611 65.7458C76.9646 62.9535 77.1593 62.0532 77.9615 57.5727Z" stroke="#333333" stroke-width="2.91667"/>
</svg>
