<svg width="68" height="77" viewBox="0 0 68 77" fill="none" xmlns="http://www.w3.org/2000/svg">
<path d="M11.7257 24.112C14.8393 23.8243 17.4159 21.6317 25.4643 21.7328C26.9582 21.7328 28.4773 21.8261 29.7613 21.9271C25.0447 31.374 20.5295 32.6647 15.4688 35.7514C14.084 36.6456 15.3681 38.1306 16.1234 39.0325C16.862 39.9267 18.8006 43.4255 19.6651 44.1097C19.6651 44.203 19.7742 44.203 19.7742 44.203C20.2945 45.0039 20.2945 45.7114 21.4779 45.517C23.2067 45.1982 24.3901 44.3974 25.5651 44.8095C27.722 45.6103 29.4508 48.3861 28.4773 51.3717C26.4295 57.6385 19.1196 59.5357 12.5901 56.9621C10.0975 55.9669 7.83993 54.2641 4.85218 55.1582C3.54294 55.547 1.83924 56.4489 2.04906 58.4394C2.25048 60.1421 4.95289 64.6129 8.39384 68.1817C12.6908 72.6757 17.5166 75.3504 25.884 75.3504C36.1061 75.3504 48.3341 65.9968 49.5343 56.4489C51.0281 44.6151 47.7047 41.6294 37.6084 37.8429L37.7091 37.7418C40.3863 35.6503 43.9532 30.8686 48.5691 24.5007C51.3471 21.7328 53.4956 14.9528 52.4213 13.5688C50.7176 11.4773 46.4122 6.98326 44.0539 5.89473C42.644 5.21052 40.2772 2.22485 34.5871 2.41923C18.381 3.119 9.98843 5.50598 4.50808 6.20574C3.0142 6.40012 1.73014 7.6908 2.04906 9.39356C2.91349 14.253 5.48162 19.4235 6.34605 20.3255C8.60366 22.8291 7.73922 23.8243 11.7257 24.112ZM65.9585 64.3252C66.2691 62.8168 64.7752 60.632 63.4911 59.8233C60.0586 57.7396 55.2076 57.6385 51.8758 57.6385C50.2728 57.6385 49.7273 58.5404 49.5175 59.3413C48.888 61.8216 48.2334 65.3204 48.2334 68.6948C48.2334 69.8844 48.5439 70.8796 49.1986 71.6805C51.5569 74.4485 55.0985 75.2571 61.6531 75.2571C63.147 75.2571 63.4911 74.5729 63.9107 73.3599C64.8843 70.2732 65.0941 69.278 65.9585 64.3252Z" stroke="#333333" stroke-width="2.91667"/>
</svg>
